<?xml version="1.0" encoding="UTF-8" standalone="no"?>
<!-- Created with Inkscape (http://www.inkscape.org/) -->

<svg
   width="256"
   height="256"
   viewBox="0 0 67.733333 67.733333"
   version="1.1"
   id="svg1"
   xml:space="preserve"
   inkscape:version="1.4.2 (ebf0e940d0, 2025-05-08)"
   sodipodi:docname="icon.svg"
   xmlns:inkscape="http://www.inkscape.org/namespaces/inkscape"
   xmlns:sodipodi="http://sodipodi.sourceforge.net/DTD/sodipodi-0.dtd"
   xmlns="http://www.w3.org/2000/svg"
   xmlns:svg="http://www.w3.org/2000/svg"><sodipodi:namedview
     id="namedview1"
     pagecolor="#000000"
     bordercolor="#eeeeee"
     borderopacity="1"
     inkscape:showpageshadow="0"
     inkscape:pageopacity="0"
     inkscape:pagecheckerboard="0"
     inkscape:deskcolor="#d1d1d1"
     inkscape:document-units="mm"
     inkscape:zoom="1.1754459"
     inkscape:cx="-6.3805571"
     inkscape:cy="224.17024"
     inkscape:window-width="2226"
     inkscape:window-height="1171"
     inkscape:window-x="0"
     inkscape:window-y="0"
     inkscape:window-maximized="1"
     inkscape:current-layer="layer1" /><defs
     id="defs1" /><g
     inkscape:label="Layer 1"
     inkscape:groupmode="layer"
     id="layer1"><rect
       style="opacity:1;fill:#000000;fill-opacity:1;stroke:none;stroke-width:0.1;stroke-linecap:round;stroke-linejoin:round;stroke-dasharray:none;stroke-dashoffset:7.8;stroke-opacity:1"
       id="rect13"
       width="67.733337"
       height="67.73333"
       x="0"
       y="0" /><g
       id="g13"
       transform="matrix(1.6945176,0,0,1.6945176,-73.093697,-199.65871)"
       style="stroke-width:0.590138"><circle
         style="opacity:1;fill:#2f586b;fill-opacity:1;stroke:none;stroke-width:0.0590138;stroke-linecap:round;stroke-linejoin:round;stroke-dasharray:none;stroke-dashoffset:7.8;stroke-opacity:1"
         id="circle7"
         cx="51.760887"
         cy="132.77222"
         r="9.2577305" /><path
         id="ellipse1"
         style="opacity:1;fill:#74dbb0;fill-opacity:1;stroke:none;stroke-width:0.059231;stroke-linecap:round;stroke-linejoin:round;stroke-dasharray:none;stroke-dashoffset:7.8;stroke-opacity:1"
         d="m 32.391044,126.50303 c -0.417397,0.0145 -1.145315,0.47631 -1.945779,1.12653 -1.113687,0.90464 -1.909287,1.95079 -1.753953,2.35352 0.143249,0.37141 1.228897,0.11234 2.342593,-0.79231 1.113694,-0.90466 1.829018,-2.10547 1.690091,-2.48367 -0.05398,-0.14691 -0.169623,-0.20975 -0.332952,-0.20407 z m 8.102731,2.99592 a 2.3626556,3.1470182 0 0 0 -2.362411,3.14688 2.3626556,3.1470182 0 0 0 2.36282,3.1474 2.3626556,3.1470182 0 0 0 2.362473,-3.1474 2.3626556,3.1470182 0 0 0 -2.362882,-3.14688 z m -8.264957,2.30459 a 1.1868129,1.4081356 25.984006 0 0 -1.38694,1.36859 1.1868129,1.4081356 25.984006 0 0 1.056322,1.36859 1.1868129,1.4081356 25.984006 0 0 1.386423,-1.36859 1.1868129,1.4081356 25.984006 0 0 -1.055805,-1.36859 z m 8.203484,5.02824 a 1.0439352,1.8666756 44.257137 0 0 -1.325682,0.63041 1.0439352,1.8666756 44.257137 0 0 -0.906949,1.48052 10.42629,6.9279497 25.256869 0 0 2.244594,0.12598 1.0439352,1.8666756 44.257137 0 0 0.626155,-1.94956 1.0439352,1.8666756 44.257137 0 0 -0.638118,-0.28735 z"
         transform="matrix(1,0,0.12078721,0.99267842,0,0)" /><path
         id="path1"
         style="opacity:1;fill:#a7ffc9;fill-opacity:1;stroke:none;stroke-width:0.0590138;stroke-linecap:round;stroke-linejoin:round;stroke-dasharray:none;stroke-dashoffset:7.8;stroke-opacity:1"
         d="m 51.760665,123.51442 c -2.272602,0.007 -4.463056,0.85063 -6.154146,2.36885 0.654062,-0.56298 1.254978,-0.95984 1.636592,-0.97306 0.162643,-0.006 0.285871,0.0567 0.357601,0.20257 0.184608,0.37542 -0.385671,1.56745 -1.390096,2.46548 -1.004424,0.89804 -2.058781,1.15521 -2.246891,0.78651 -0.117781,-0.23084 0.0556,-0.67421 0.416512,-1.1808 -1.217837,1.60849 -1.876893,3.57078 -1.876888,5.58829 -5.5e-5,5.11278 4.144536,9.2576 9.257316,9.25783 3.778161,3e-5 7.177253,-2.29583 8.588106,-5.80068 -0.06529,0.0134 -0.12924,-0.009 -0.188619,-0.0724 -0.257873,-0.27321 -0.204774,-1.0452 0.01499,-1.73219 0.164818,-0.51524 0.405179,-0.87789 0.591179,-0.88263 0.062,-0.002 0.11774,0.037 0.16278,0.12247 0.01414,0.0268 0.02658,0.0547 0.03772,0.0837 0.0344,-0.32425 0.05165,-0.6501 0.05168,-0.97617 6e-5,-5.11299 -4.144847,-9.2579 -9.257833,-9.25784 z m 5.022432,4.86792 c 1.304731,2.1e-4 2.532502,1.39872 2.742469,3.12384 0.20986,1.72515 -0.677604,3.12367 -1.982308,3.12385 -1.304889,1.6e-4 -2.53299,-1.39846 -2.742985,-3.12385 -0.209888,-1.72541 0.677876,-3.12404 1.982824,-3.12384 z m -9.01392,2.42673 c 0.674301,8e-5 1.220939,0.60803 1.221114,1.35806 7.8e-5,0.75023 -0.546635,1.35849 -1.221114,1.35857 -0.674681,2.4e-4 -1.221709,-0.60811 -1.221631,-1.35857 1.75e-4,-0.75026 0.547129,-1.3583 1.221631,-1.35806 z m 9.648507,5.4684 c 0.285478,-0.01 0.521978,0.0905 0.672827,0.28525 0.378585,0.48863 0.131229,1.43363 -0.552421,2.11047 -0.683558,0.67696 -1.544558,0.82944 -1.92288,0.34055 -0.378219,-0.48868 -0.13091,-1.43327 0.552421,-2.10995 0.384753,-0.38111 0.846765,-0.6126 1.250053,-0.62632 z"
         sodipodi:nodetypes="ccscssccccsssscccscscscccccsscccs" /><path
         id="circle9"
         style="opacity:1;fill:#46847e;fill-opacity:1;stroke:none;stroke-width:0.0590138;stroke-linecap:round;stroke-linejoin:round;stroke-dasharray:none;stroke-dashoffset:7.8;stroke-opacity:1"
         d="m 42.957585,129.90783 c -0.30096,0.92502 -0.454253,1.89169 -0.454236,2.86443 -5.5e-5,5.11278 4.144536,9.2576 9.257316,9.25783 2.95377,-4e-5 5.730215,-1.40957 7.473446,-3.79408 -0.483778,0.12968 -0.997501,0.21703 -1.534274,0.26303 -0.05076,0.0597 -0.10483,0.1178 -0.161747,0.17415 -0.683558,0.67696 -1.544558,0.82944 -1.92288,0.34055 -0.114534,-0.14799 -0.171662,-0.33782 -0.176733,-0.54932 -1.794328,-0.19178 -3.712559,-0.75783 -5.545398,-1.66605 -3.378595,-1.67441 -6.000535,-4.27935 -6.935494,-6.89054 z" /><path
         id="path9"
         style="opacity:1;fill:#2f586b;fill-opacity:1;stroke:none;stroke-width:0.0590138;stroke-linecap:round;stroke-linejoin:round;stroke-dasharray:none;stroke-dashoffset:7.8;stroke-opacity:1"
         d="m 49.854838,138.05566 c 0.285343,-0.007 0.584879,0.0642 0.852144,0.20153 0.670713,0.3446 0.969228,1.01013 0.666626,1.48622 -0.302425,0.47586 -1.090853,0.58227 -1.761132,0.23771 -0.670338,-0.34454 -0.968782,-1.00968 -0.666626,-1.4857 0.170117,-0.26795 0.506054,-0.43047 0.908988,-0.43976 z"
         sodipodi:nodetypes="csscsc" /></g><g
       inkscape:label="Image"
       id="g234"
       transform="matrix(0.02182367,0,0,0.02182367,33.477164,35.742611)"
       style="stroke-width:12.1237"><circle
         style="fill:#ffffff;fill-opacity:1;stroke:none;stroke-width:36.3711;stroke-linejoin:round;stroke-dashoffset:7.8;stroke-opacity:1"
         id="path344"
         cx="360"
         cy="360"
         r="360" /><circle
         style="fill:#020202;fill-opacity:1;stroke:none;stroke-width:36.3711;stroke-linejoin:round;stroke-dashoffset:7.8;stroke-opacity:1"
         id="circle1006"
         cx="360"
         cy="360"
         r="150.11122" /><path
         id="path1318"
         style="fill:#b0b0b0;fill-opacity:1;stroke:none;stroke-width:36.3711;stroke-linejoin:round;stroke-dashoffset:7.8;stroke-opacity:1"
         d="M 360,43.285156 A 78.679779,64.005043 0 0 0 281.32031,107.28906 78.679779,64.005043 0 0 0 360,171.29492 78.679779,64.005043 0 0 0 438.67969,107.28906 78.679779,64.005043 0 0 0 360,43.285156 Z M 156.2793,158.44531 a 64.005043,78.679779 30 0 0 -8.7793,0.1875 64.005043,78.679779 30 0 0 -61.783203,43.00977 64.005043,78.679779 30 0 0 16.087893,100.14062 64.005043,78.679779 30 0 0 94.77148,-36.13672 64.005043,78.679779 30 0 0 -16.09179,-100.14062 64.005043,78.679779 30 0 0 -24.20508,-7.06055 z m 407.4414,0 a 78.679779,64.005043 60 0 0 -24.20508,7.06055 78.679779,64.005043 60 0 0 -16.09179,100.14062 78.679779,64.005043 60 0 0 94.77148,36.13672 78.679779,64.005043 60 0 0 16.08789,-100.14062 78.679779,64.005043 60 0 0 -61.7832,-43.00977 78.679779,64.005043 60 0 0 -8.7793,-0.1875 z m 30.26758,252.71094 a 64.005043,78.679779 30 0 0 -8.7793,0.1875 64.005043,78.679779 30 0 0 -61.78515,43.00977 64.005043,78.679779 30 0 0 16.09179,100.14062 64.005043,78.679779 30 0 0 94.76758,-36.13672 64.005043,78.679779 30 0 0 -16.08789,-100.14062 64.005043,78.679779 30 0 0 -24.20703,-7.06055 z" /><path
         id="circle1304"
         style="fill:#727272;fill-opacity:1;stroke:none;stroke-width:36.3711;stroke-linejoin:round;stroke-dashoffset:7.8;stroke-opacity:1"
         d="m 147.5,158.63281 a 64.005043,78.679779 30 0 0 -41.60938,19.32617 c 55.17932,21.03819 88.00062,64.63142 84.85352,95.68164 a 64.005043,78.679779 30 0 0 5.83203,-7.99414 A 64.005043,78.679779 30 0 0 180.48438,165.50586 64.005043,78.679779 30 0 0 147.5,158.63281 Z M 27.873047,222.94531 A 360,360 0 0 0 0,360 360,360 0 0 0 360,720 360,360 0 0 0 642.77344,581.45312 598.08832,598.08832 0 0 1 576.97656,586.1582 598.08832,598.08832 0 0 1 27.873047,222.94531 Z M 585.20898,411.34375 a 64.005043,78.679779 30 0 0 -61.78515,43.00977 64.005043,78.679779 30 0 0 -0.68164,1.5371 c 35.11373,-13.89237 82.76185,2.69132 121.73242,34.31055 a 64.005043,78.679779 30 0 0 -26.2793,-71.98437 64.005043,78.679779 30 0 0 -32.98633,-6.87305 z" /><path
         id="circle1008"
         style="fill:#4a4a4a;fill-opacity:1;stroke:none;stroke-width:36.3711;stroke-linejoin:round;stroke-dashoffset:7.8;stroke-opacity:1"
         d="m 126.01172,411.15625 a 78.679779,64.005043 60 0 0 -24.20703,7.06055 78.679779,64.005043 60 0 0 -16.087893,100.14062 78.679779,64.005043 60 0 0 94.767583,36.13672 78.679779,64.005043 60 0 0 16.09179,-100.14062 78.679779,64.005043 60 0 0 -61.78515,-43.00977 78.679779,64.005043 60 0 0 -8.7793,-0.1875 z M 360,548.70703 A 78.679779,64.005043 0 0 0 281.32031,612.71289 78.679779,64.005043 0 0 0 360,676.71484 78.679779,64.005043 0 0 0 438.67969,612.71289 78.679779,64.005043 0 0 0 360,548.70703 Z" /><path
         id="path1241"
         style="fill:#b0b0b0;fill-opacity:1;stroke:none;stroke-width:12.1237px;stroke-linecap:butt;stroke-linejoin:miter;stroke-opacity:1"
         d="m 75.396484,456.5918 a 78.679779,64.005043 60 0 0 10.320313,61.76562 78.679779,64.005043 60 0 0 94.767583,36.13672 78.679779,64.005043 60 0 0 9.98046,-7.48633 C 183.43209,509.70519 123.3293,466.05765 75.396484,456.5918 Z M 297.60742,595.69922 c -4.88583,0.12926 -9.50038,0.7779 -13.83594,1.875 A 78.679779,64.005043 0 0 0 281.32031,612.71289 78.679779,64.005043 0 0 0 360,676.71484 78.679779,64.005043 0 0 0 418.20508,655.24219 C 393.84909,624.55211 337.83773,594.63482 297.60742,595.69922 Z" /><path
         id="path2777"
         style="fill:#ffffff;fill-opacity:1;stroke:none;stroke-width:36.3711;stroke-linejoin:round;stroke-dashoffset:7.8;stroke-opacity:1"
         d="m 409.3501,274.52312 c -22.50017,-12.99025 -48.0639,-10.83581 -57.09881,4.81211 -9.03402,15.64843 1.88205,38.86446 24.38201,51.85505 22.50016,12.99024 48.06387,10.83582 57.0988,-4.81208 9.03405,-15.64843 -1.88203,-38.86448 -24.382,-51.85508 z"
         sodipodi:nodetypes="ccccc" /></g></g></svg>
