<?xml version="1.0" encoding="UTF-8" standalone="no"?>
<!-- Created with Inkscape (http://www.inkscape.org/) -->

<svg
   width="250"
   height="240"
   viewBox="0 0 66.145833 63.5"
   version="1.1"
   id="svg1"
   inkscape:version="1.4 (e7c3feb100, 2024-10-09)"
   sodipodi:docname="chol_logo.svg"
   xmlns:inkscape="http://www.inkscape.org/namespaces/inkscape"
   xmlns:sodipodi="http://sodipodi.sourceforge.net/DTD/sodipodi-0.dtd"
   xmlns="http://www.w3.org/2000/svg"
   xmlns:svg="http://www.w3.org/2000/svg">
  <sodipodi:namedview
     id="namedview1"
     pagecolor="#595959"
     bordercolor="#666666"
     borderopacity="1.0"
     inkscape:showpageshadow="2"
     inkscape:pageopacity="0.0"
     inkscape:pagecheckerboard="0"
     inkscape:deskcolor="#d1d1d1"
     inkscape:document-units="px"
     inkscape:zoom="1.7616373"
     inkscape:cx="91.959904"
     inkscape:cy="35.194531"
     inkscape:window-width="1920"
     inkscape:window-height="973"
     inkscape:window-x="0"
     inkscape:window-y="32"
     inkscape:window-maximized="1"
     inkscape:current-layer="layer1" />
  <defs
     id="defs1" />
  <g
     inkscape:label="Layer 1"
     inkscape:groupmode="layer"
     id="layer1">
    <path
       id="path3"
       style="color:#000000;fill:#ffffff;fill-opacity:1;stroke-width:1;-inkscape-stroke:none"
       d="M 19.414837,2.0464466 V 28.406077 h -4.289141 c -1.95457,0 -3.74906,-1.03582 -4.72633,-2.72852 -0.9772698,-1.69268 -0.9772798,-3.76432 0,-5.45703 0.97727,-1.69268 2.77177,-2.72852 4.72633,-2.72852 v -6.00015 c -4.08854,0 -7.8796798,2.18758 -9.9239498,5.72834 -2.04425,3.54077 -2.04426,7.91642 0,11.45718 2.04427,3.54079 5.8354198,5.72833 9.9239498,5.72833 h 10.289291 v -12.2499 h 7.65793 v 9.72654 c 0,3.80763 2.09583,7.31858 5.42396,9.19169 3.32812,1.8731 7.40404,1.8731 10.73216,0 2.82687,-1.591 4.76383,-4.36384 5.2834,-7.49619 h 10.8381 v -6.00015 h -10.69754 v -13.56248 c 0,-3.80762 -2.09583,-7.3180704 -5.42396,-9.1911704 -1.66406,-0.93655 -3.51383,-1.40456 -5.36505,-1.40456 -1.85121,0 -3.70305,0.46801 -5.36711,1.40456 -3.32813,1.8731 -5.42396,5.3835404 -5.42396,9.1911704 v 2.14096 h -7.65793 V 2.0464466 Z m 24.44915,7.37526 c 0.83873,0 1.67584,0.21098 2.42208,0.6309604 1.49244,0.83996 2.36678,2.34403 2.36678,3.96255 v 17.86713 c 0,1.61853 -0.87433,3.1231 -2.36678,3.96307 -1.49247,0.83998 -3.35324,0.83998 -4.8457,0 -1.49246,-0.83997 -2.3673,-2.34454 -2.3673,-3.96307 v -17.86713 c 0,-1.61851 0.87485,-3.12259 2.3673,-3.96255 0.74623,-0.4199804 1.58489,-0.6309604 2.42362,-0.6309604 z" />
    <path
       d="m 15.679347,52.451517 c -0.729071,0 -1.352311,0.2587 -1.869721,0.77611 -0.5174,0.51741 -0.7761,1.14064 -0.7761,1.86972 v 3.52776 c 0,0.72907 0.2587,1.3523 0.7761,1.86972 0.51741,0.51741 1.14065,0.7761 1.869721,0.7761 h 1.76388 1.76389 v -4.4097 h -0.88195 -0.88194 -0.88194 v 1.41111 h 0.88194 v 1.23471 h -1.76388 c -0.24695,0 -0.458611,-0.0823 -0.635001,-0.24694 -0.16463,-0.17639 -0.24694,-0.38805 -0.24694,-0.635 v -3.52776 c 0,-0.24695 0.0823,-0.45273 0.24694,-0.61736 0.17639,-0.17639 0.388051,-0.26459 0.635001,-0.26459 h 0.88194 c 0.24695,0 0.45273,0.0882 0.61736,0.26459 0.17639,0.16463 0.26458,0.37041 0.26458,0.61736 h 1.76389 c 0,-0.72907 -0.2587,-1.35231 -0.77611,-1.86972 -0.51741,-0.51741 -1.14065,-0.77611 -1.86972,-0.77611 z m 7.93747,0 c -0.72907,0 -1.3523,0.2587 -1.86971,0.77611 -0.51741,0.51741 -0.77611,1.14064 -0.77611,1.86972 v 6.17358 h 1.76388 v -1.94027 h 2.64583 v 1.94027 h 1.76388 v -6.17358 c 0,-0.72908 -0.2587,-1.35231 -0.77611,-1.86972 -0.51741,-0.51742 -1.14064,-0.77611 -1.86971,-0.77611 z m 0,1.76388 h 0.88195 c 0.24694,0 0.45273,0.0882 0.61736,0.26459 0.17639,0.16463 0.26458,0.37041 0.26458,0.61736 v 2.82221 h -2.64583 v -2.82221 c 0,-0.24695 0.0823,-0.45273 0.24695,-0.61736 0.17639,-0.17639 0.38805,-0.26459 0.63499,-0.26459 z m 11.25358,6.64984 1.97555,-5.82081 v 6.22651 h 1.76388 v -8.81942 h -2.64582 l -2.20486,6.49109 -2.20485,-6.49109 h -2.64583 v 8.81942 h 1.76389 v -6.22651 l 1.97555,5.82081 z m 11.67692,0.4057 v -1.76389 h -4.40971 v -1.76388 h 2.64582 v -1.41111 h -2.64582 v -2.11666 h 3.52776 v -1.76388 h -5.29165 v 8.81942 z m 3.35137,-8.81942 c -0.72908,0 -1.35231,0.2587 -1.86971,0.77611 -0.51741,0.51741 -0.77611,1.14064 -0.77611,1.86972 0,0.72907 0.2587,1.3523 0.77611,1.86971 0.5174,0.51741 1.14063,0.7761 1.86971,0.7761 h 0.88194 c 0.24694,0 0.45273,0.0882 0.61736,0.26458 0.17639,0.16463 0.26459,0.37042 0.26459,0.61736 0,0.24695 -0.0882,0.45861 -0.26459,0.635 -0.16463,0.16463 -0.37042,0.24694 -0.61736,0.24694 h -0.88194 c -0.24694,0 -0.45861,-0.0823 -0.635,-0.24694 -0.16463,-0.17639 -0.24694,-0.38805 -0.24694,-0.635 h -1.76388 c 0,0.72907 0.2587,1.35231 0.77611,1.86972 0.5174,0.51741 1.14063,0.77611 1.86971,0.77611 h 0.88194 c 0.72907,0 1.35231,-0.2587 1.86972,-0.77611 0.5174,-0.51741 0.77611,-1.14065 0.77611,-1.86972 0,-0.72907 -0.25871,-1.35231 -0.77611,-1.86971 -0.51741,-0.51741 -1.14065,-0.77611 -1.86972,-0.77611 h -0.88194 c -0.24694,0 -0.45861,-0.0823 -0.635,-0.24695 -0.16463,-0.17639 -0.24694,-0.38805 -0.24694,-0.63498 0,-0.24695 0.0823,-0.45273 0.24694,-0.61736 0.17639,-0.17639 0.38806,-0.26459 0.635,-0.26459 h 0.88194 c 0.24694,0 0.45273,0.0882 0.61736,0.26459 0.17639,0.16463 0.26459,0.37041 0.26459,0.61736 h 1.76388 c 0,-0.72908 -0.25871,-1.35231 -0.77611,-1.86972 -0.51741,-0.51742 -1.14065,-0.77611 -1.86972,-0.77611 z"
       id="text3"
       style="font-size:10.5833px;line-height:1.25;font-family:'chol game font';-inkscape-font-specification:'chol game font';stroke-width:0.264583;fill:#ffffff;fill-opacity:1"
       aria-label="GAMES"
       sodipodi:nodetypes="sssssscccccccccscssssscccssssssccccccsssssscsccssscccccccccccccccccccccccccccsssssscsssscccsssssssscsssscccsss" />
  </g>
</svg>
