<?xml version="1.0" encoding="UTF-8" standalone="no"?>
<!-- Created with Inkscape (http://www.inkscape.org/) -->

<svg
   width="400"
   height="400"
   viewBox="0 0 105.83333 105.83333"
   version="1.1"
   id="svg1008"
   xml:space="preserve"
   inkscape:version="1.2.2 (b0a8486541, 2022-12-01)"
   sodipodi:docname="game_over.svg"
   xmlns:inkscape="http://www.inkscape.org/namespaces/inkscape"
   xmlns:sodipodi="http://sodipodi.sourceforge.net/DTD/sodipodi-0.dtd"
   xmlns="http://www.w3.org/2000/svg"
   xmlns:svg="http://www.w3.org/2000/svg"><sodipodi:namedview
     id="namedview1010"
     pagecolor="#505050"
     bordercolor="#eeeeee"
     borderopacity="1"
     inkscape:showpageshadow="0"
     inkscape:pageopacity="0"
     inkscape:pagecheckerboard="0"
     inkscape:deskcolor="#d1d1d1"
     inkscape:document-units="px"
     showgrid="false"
     inkscape:zoom="0.73908552"
     inkscape:cx="-107.56536"
     inkscape:cy="113.65397"
     inkscape:window-width="1920"
     inkscape:window-height="1019"
     inkscape:window-x="0"
     inkscape:window-y="27"
     inkscape:window-maximized="1"
     inkscape:current-layer="layer1"><inkscape:grid
       type="xygrid"
       id="grid1492"
       spacingx="2.6458333"
       spacingy="2.6458333"
       originx="0"
       originy="0" /></sodipodi:namedview><defs
     id="defs1005" /><g
     inkscape:label="Layer 1"
     inkscape:groupmode="layer"
     id="layer1"><path
       id="path1084"
       style="color:#000000;-inkscape-font-specification:'chol game font';fill:#ffffff;-inkscape-stroke:none"
       d="m 15.241705,7.2150632 c -2.324264,0 -4.455843,0.8794602 -6.1169394,2.517159 l -0.00413,0.00207 -0.00568,0.00775 -0.00982,0.00982 -0.0062,0.00413 C 8.3185886,10.559985 7.6962738,11.494667 7.2494279,12.529467 l -0.00982,0.02325 -0.011369,0.03307 0.011369,-0.02739 c -0.4298908,1.050857 -0.650088,2.166658 -0.650088,3.308851 v 2.645833 6.772197 2.645833 c 0,2.324272 0.880018,4.455889 2.5176757,6.116939 l 0.00155,0.0041 0.00775,0.0057 0.00413,0.0062 0.00413,0.0016 c 1.6610944,1.637572 3.7926794,2.517676 6.1169394,2.517676 h 4.709273 6.296773 v -2.645834 -12.303124 -1.53324 -1.112594 -0.475423 c 0,-0.355274 -0.02612,-0.7081 -0.07235,-1.057816 h 0.07235 v -1.588017 c 0,-0.569147 -0.06018,-1.132905 -0.177767,-1.685685 -0.09903,-0.556468 -0.257876,-1.095212 -0.478524,-1.611271 -0.21234,-0.516035 -0.470893,-1.010821 -0.777213,-1.48208 -0.315867,-0.485949 -0.681421,-0.937218 -1.091923,-1.3477216 l -0.0041,-0.0062 -0.0036,-0.00155 C 22.053334,8.0949576 19.921395,7.2150632 17.597116,7.2150632 Z m 21.193537,0 c -0.37147,0 -0.743329,0.022713 -1.115177,0.068213 l -0.03927,0.00568 c -0.36108,0.048145 -0.722244,0.1190114 -1.082105,0.214974 -0.319505,0.085201 -0.631297,0.1945521 -0.941544,0.3141927 l -0.0098,0.00413 -0.0078,0.00207 -0.07183,0.019637 -0.06873,0.028939 c -0.314533,0.1348505 -0.621251,0.2908962 -0.923975,0.4614705 l -0.10542,0.048576 -0.09353,0.075964 -0.01188,0.00982 c -0.255084,0.1616182 -0.50788,0.3305462 -0.75551,0.5193481 -0.32066,0.2240823 -0.622691,0.47438 -0.90072,0.7524088 l -0.01757,0.015503 c -0.0016,0.0017 -0.002,0.00398 -0.0036,0.00568 -0.778199,0.8030197 -1.40011,1.7354767 -1.845883,2.7677897 l -0.0036,0.0057 -0.0083,0.02325 c -0.430531,1.052408 -0.646472,2.168457 -0.646472,3.308842 v 2.645833 15.424381 2.645834 h 7.88479 V 33.937465 31.40377 h 3.888651 v 2.533695 2.645834 h 7.884805 V 33.937462 18.513081 15.867248 c 0,-2.32525 -0.897215,-4.451892 -2.554366,-6.0916176 C 43.246021,8.1150518 41.116247,7.2150632 38.788587,7.2150632 Z m 12.538769,0 v 1.0583333 0.5291667 1.0583333 1.0583335 0.529166 22.489066 2.645834 h 7.88479 v -2.645834 -5.951574 l 2.545064,7.478096 h 8.21862 l 2.542997,-7.472412 v 5.94589 2.645834 h 7.88479 V 33.937462 9.8608965 7.2150632 H 68.261206 L 63.513175,21.203356 58.763078,7.2150632 Z m 30.611568,0 v 1.0583333 0.5291667 1.0583333 1.0583335 0.529166 22.489066 2.645834 H 99.24381 v -2.645834 -5.238956 -2.645833 h -4.709273 v -1.53324 -4.297412 -2.476335 h 2.353861 V 15.099853 9.8608965 7.2150632 Z M 15.241705,17.745686 h 2.355411 c 0.283138,0 0.342209,0.03269 0.546737,0.224276 0.0362,0.04806 0.07597,0.10067 0.09612,0.136943 l 0.0021,0.0021 0.03101,0.05839 0.03307,0.04858 c 0.0021,0.0031 4.96e-4,-2.09e-4 0.0015,0.001 l 5.17e-4,0.0031 0.0021,0.0021 v 0.0057 l 0.0217,0.0863 0.01137,0.03669 c 0.01074,0.0358 0.01964,0.081 0.01964,0.162264 v 0.475423 h -2.353861 v 2.645834 4.297412 0.120923 h -0.767395 c -0.28202,0 -0.340566,-0.03346 -0.54312,-0.222726 -0.189745,-0.203249 -0.224275,-0.265066 -0.224275,-0.544669 v -6.772197 c 0,-0.307291 0.0062,-0.31888 0.212906,-0.525549 0.235769,-0.235769 0.263279,-0.241846 0.554489,-0.241846 z m 21.193537,0 h 2.353345 c 0.281203,0 0.34353,0.03413 0.545186,0.222209 0.06751,0.08247 0.11951,0.158293 0.153996,0.242362 l 0.0078,0.01964 0.01188,0.02532 c 0.03514,0.08198 0.04858,0.140595 0.04858,0.257865 v 3.301607 h -3.888651 v -3.301607 c 0,-0.283027 0.03524,-0.342031 0.224792,-0.545186 0.08901,-0.07337 0.170403,-0.131672 0.242362,-0.163814 0.107158,-0.04022 0.193502,-0.0584 0.300757,-0.0584 z M 20.68685,38.119119 c -2.330201,0 -4.465575,0.897319 -6.12469,2.556433 -1.643291,1.64329 -2.527495,3.770891 -2.527495,6.095752 v 2.645833 6.772196 2.645834 c 0,2.324257 0.879634,4.457561 2.517676,6.119006 l 0.01344,0.01395 0.0041,0.0021 c 1.661091,1.637698 3.792679,2.517676 6.116939,2.517676 h 2.355412 c 2.324324,0 4.452198,-0.881875 6.095752,-2.525427 1.659721,-1.659719 2.554882,-3.797608 2.554882,-6.127274 v -2.645834 -6.772196 -2.645833 c 0,-2.324942 -0.894594,-4.451322 -2.552815,-6.091618 C 27.49925,39.018106 25.370078,38.11915 23.042232,38.11915 Z m 10.865486,0 v 2.645833 l 0.255799,1.267623 0.127124,0.630969 4.964554,24.824324 H 46.56589 L 51.909749,40.764952 V 38.119119 H 43.962431 L 41.732076,49.273477 39.501722,38.119119 Z m 20.660237,0 v 1.05885 0.529167 1.057816 1.05885 0.529167 22.489066 2.645833 h 19.658231 v -2.645833 -5.238957 -2.645833 h -4.709273 v -1.53324 -4.297928 -2.474268 h 2.353862 v -2.645833 -5.241024 -2.645833 z m 20.308321,0 v 1.05885 0.529167 1.057816 1.05885 0.529167 22.489066 2.645833 h 7.88479 v -2.645833 -4.418852 h 3.121256 0.185518 l 3.545004,7.064685 h 8.261511 v -2.645833 l -4.503085,-8.973612 c 0.72494,-1.232007 1.163237,-2.601549 1.163237,-4.095874 v -2.355412 c 0,-0.03372 -0.0041,-0.06664 -0.0047,-0.100252 0.0016,-0.06338 0.0047,-0.12634 0.0047,-0.190169 v -2.355412 c 0,-0.397383 -0.04016,-0.786604 -0.0956,-1.171505 v -0.0062 -0.08217 l -0.01344,-0.07803 v -0.0036 c -0.07228,-0.456296 -0.181439,-0.902432 -0.326595,-1.337903 -0.140103,-0.420311 -0.31496,-0.82676 -0.519349,-1.219047 -0.198463,-0.419238 -0.43382,-0.816648 -0.706933,-1.189075 -0.252159,-0.343851 -0.525913,-0.677273 -0.822172,-0.996321 l -0.01395,-0.01344 -0.0057,-0.0062 -0.0041,-0.0057 -0.01757,-0.0155 C 88.007441,39.000341 85.867639,38.119119 83.526958,38.119119 H 78.817685 Z M 20.68685,48.651809 h 2.355412 c 0.297035,0 0.290249,-0.0048 0.502295,0.216524 l 0.0078,0.0078 0.0155,0.01602 0.0155,0.0155 0.0083,0.0078 c 0.221835,0.212593 0.216524,0.204541 0.216524,0.501778 v 6.772196 c 0,0.282081 -0.03439,0.34345 -0.222725,0.545187 -0.0481,0.03651 -0.09861,0.07666 -0.136426,0.09767 -0.07688,0.04272 -0.157736,0.07673 -0.246496,0.103353 -0.04659,0.01398 -0.08763,0.0217 -0.160197,0.0217 h -2.355412 c -0.282019,0 -0.340048,-0.03346 -0.542602,-0.222725 -0.189607,-0.203126 -0.224793,-0.26575 -0.224793,-0.545187 v -6.772196 c 0,-0.307294 0.0062,-0.318364 0.212907,-0.525032 0.234428,-0.234429 0.260472,-0.240296 0.554488,-0.240296 z m 59.718834,0 h 3.150712 c 0.295843,0 0.293562,-0.0023 0.501778,0.214974 9.78e-4,0.001 0.001,4.72e-4 0.0021,0.0016 l 0.01757,0.0217 0.0078,0.0078 c 0.137249,0.137328 0.181821,0.190747 0.197921,0.309025 -0.0035,0.02513 -0.003,0.05571 -0.01034,0.0801 l -0.02946,0.09198 -0.0057,0.04289 -0.0041,0.0078 -0.02326,0.03721 -0.03152,0.04909 -0.0098,0.01757 c -0.01986,0.03574 -0.06163,0.08667 -0.09767,0.134359 -0.08007,0.06569 -0.151568,0.119322 -0.236162,0.154512 l 0.01964,-0.0057 -0.03359,0.01344 -0.03669,0.0155 h -0.0041 l -0.08217,0.03307 0.02945,-0.02119 c -0.05533,0.01879 -0.103331,0.03514 -0.172082,0.03514 h -3.150195 z m 3.976501,11.743986 h 0.0041 c 0.0026,-1.31e-4 -0.0071,0.0022 -0.0021,0.0021 z" /><path
       id="path393"
       style="font-size:29.4333px;line-height:1.05;font-family:'chol game font';-inkscape-font-specification:'chol game font';text-align:center;text-anchor:middle;fill:#000000;fill-opacity:1;stroke-width:0.264583"
       d="m 15.241705,8.2733965 c -2.067313,0 -3.894117,0.7528923 -5.3748659,2.2127845 l -0.0041,0.0041 -0.0036,0.0036 C 9.1675229,11.206454 8.6193723,12.0288 8.2219783,12.94908 l -0.00155,0.0041 -0.00207,0.0057 c -0.3787456,0.925823 -0.5705078,1.900384 -0.5705078,2.908349 v 9.41803 c 0,2.067312 0.7529372,3.894164 2.2127846,5.374865 l 0.0041,0.0041 0.0021,0.0021 c 1.4807489,1.459894 3.3075529,2.212785 5.3748659,2.212785 h 4.709273 5.237923 V 20.046838 H 22.306389 19.950978 17.06795 V 24.8729 h 2.353344 v 2.238623 h -4.179589 c -0.52002,0 -0.918222,-0.164879 -1.298629,-0.52555 -0.360813,-0.380538 -0.527616,-0.780667 -0.527616,-1.300695 v -9.41803 c 0,-0.524594 0.161567,-0.911394 0.523482,-1.273307 0.385124,-0.385125 0.783524,-0.552938 1.302763,-0.552938 h 2.355411 c 0.520695,0 0.919848,0.16544 1.300696,0.5271 0.102484,0.120833 0.194051,0.246766 0.267684,0.379305 l 0.0098,0.01757 0.01189,0.01757 c 0.0828,0.124193 0.130856,0.242934 0.156063,0.368969 l 0.0062,0.02532 0.0078,0.02377 c 0.04356,0.145201 0.06408,0.299009 0.06408,0.466638 v 0.529167 h 5.767607 v -0.529167 c 0,-0.503105 -0.05179,-0.998317 -0.156063,-1.482597 -0.0854,-0.487487 -0.22402,-0.956106 -0.415995,-1.404048 -0.18852,-0.459385 -0.417975,-0.899196 -0.689364,-1.316716 -0.275292,-0.423526 -0.59431,-0.816518 -0.95343,-1.175639 l -0.0021,-0.0021 C 21.49122,9.0263297 19.66443,8.2733965 17.597116,8.2733965 Z m 21.193537,0 c -0.336052,0 -0.672731,0.020594 -1.008207,0.062528 l -0.0015,0.00207 h -0.0041 c -0.31685,0.042234 -0.633375,0.1048655 -0.94938,0.1891333 -0.315893,0.084238 -0.628742,0.1895884 -0.941545,0.3147095 l -0.0078,0.00207 -0.0057,0.00155 c -0.293958,0.126021 -0.585522,0.2732369 -0.876949,0.4397665 l -0.0078,0.00362 -0.0078,0.0062 c -0.264826,0.1629703 -0.527881,0.3447953 -0.789099,0.5446696 -0.0019,0.00134 -0.0037,0.00278 -0.0057,0.00413 -0.278332,0.1931916 -0.536672,0.4074806 -0.773596,0.6444046 l -0.0021,0.0041 -0.0041,0.0016 c -0.691551,0.712508 -1.239198,1.534867 -1.636592,2.455147 l -0.0021,0.0041 -0.0021,0.0057 c -0.378745,0.925823 -0.567924,1.900384 -0.567924,2.908349 v 17.011881 h 5.767606 V 27.69908 h 6.005835 v 5.180045 h 5.767606 V 15.867248 c 0,-2.067591 -0.766548,-3.886942 -2.246374,-5.347477 C 42.67563,9.0398982 40.856178,8.2733965 38.788587,8.2733965 Z m 13.59762,0 V 8.8025632 32.879129 h 5.767606 V 18.945096 l 4.360974,12.814722 h 6.703467 L 71.224332,18.94923 v 13.929899 h 5.767607 V 8.2733965 h -7.97264 L 63.513175,24.494111 58.005501,8.2733965 Z m 30.61105,0 V 8.8025632 32.879129 H 98.18496 V 27.111523 H 86.411518 V 23.4611 h 7.064685 v -4.826579 h -7.064685 v -4.593518 h 9.41803 V 8.2733965 Z m -44.20867,5.7676065 h 2.353345 c 0.519756,0 0.920457,0.165265 1.300696,0.525549 0.165709,0.184804 0.295602,0.38425 0.387056,0.612883 l 0.0016,0.0083 0.0021,0.0057 c 0.08911,0.207913 0.134876,0.426203 0.134875,0.673861 v 7.005774 h -6.005835 v -7.005774 c 0,-0.519082 0.164057,-0.918707 0.523483,-1.298629 0.188835,-0.170067 0.383875,-0.300214 0.593762,-0.390673 0.231579,-0.09157 0.46407,-0.136943 0.709,-0.136943 z M 20.68685,39.177969 c -2.069099,0 -3.896791,0.765717 -5.376933,2.245858 -1.461761,1.461761 -2.216402,3.280164 -2.216402,5.347477 v 9.418029 c 0,2.067313 0.752892,3.896184 2.212785,5.376933 l 0.0036,0.0021 0.0021,0.0021 c 1.480749,1.459893 3.307552,2.212785 5.374865,2.212785 h 2.355929 c 2.067312,0 3.885716,-0.75309 5.347477,-2.214852 1.480141,-1.48014 2.244307,-3.309901 2.244307,-5.379 v -9.417512 c 0,-2.066646 -0.763698,-3.885684 -2.24224,-5.345927 -1.461122,-1.481995 -3.280446,-2.247925 -5.349544,-2.247925 z m 12.158431,0 0.127124,0.63252 4.794539,23.972696 h 7.931815 l 4.920113,-24.605216 h -5.78931 L 41.732076,54.665912 38.634074,39.177969 Z m 20.425626,0 v 0.529167 24.076049 H 70.811954 V 58.015578 H 59.038513 v -3.650423 h 7.064685 v -4.826062 h -7.064685 v -4.591967 h 9.41803 v -5.769157 z m 20.308837,0 v 0.529167 24.076049 H 79.34735 V 56.7185 h 4.17959 0.295072 0.31626 l 0.05271,-0.0093 c 0.05503,-0.01101 0.107215,-0.01439 0.160197,-0.01602 l 3.558439,7.090006 h 5.894731 l -4.759916,-9.486244 c 1.343025,-1.446639 2.076359,-3.188642 2.076359,-5.170226 v -2.355412 c 0,-0.399413 -0.03221,-0.789823 -0.0956,-1.171505 v -0.0041 C 90.96192,45.196237 90.866685,44.805957 90.739936,44.425711 90.615418,44.052155 90.459932,43.69023 90.274848,43.337922 l -0.0021,-0.0041 c -0.170971,-0.362656 -0.37421,-0.704731 -0.609265,-1.025261 -0.22817,-0.311139 -0.475523,-0.610923 -0.74414,-0.900203 l -0.0078,-0.0078 -0.0057,-0.0062 c -1.462608,-1.462607 -3.293312,-2.216402 -5.379,-2.216402 H 78.81757 Z M 20.68685,44.947126 h 2.355412 c 0.519237,0 0.902291,0.163522 1.266072,0.543119 l 0.0078,0.0078 0.0078,0.0078 c 0.379744,0.363922 0.54312,0.746318 0.54312,1.265556 v 9.418029 c 0,0.520026 -0.16487,0.920283 -0.52555,1.300696 -0.121158,0.102928 -0.245168,0.19345 -0.378788,0.267684 -0.143454,0.0797 -0.295026,0.143647 -0.455269,0.19172 -0.1452,0.04356 -0.297459,0.06614 -0.465088,0.06614 h -2.355412 c -0.520019,0 -0.918221,-0.164878 -1.298629,-0.525549 -0.360683,-0.380415 -0.527616,-0.780667 -0.527616,-1.300696 v -9.418029 c 0,-0.524596 0.161568,-0.911394 0.523482,-1.273307 0.385124,-0.385125 0.783526,-0.550871 1.302763,-0.550871 z m 58.6605,0 h 4.209046 c 0.519237,0 0.903701,0.163376 1.267622,0.543119 l 0.0036,0.0041 0.0041,0.0036 c 0.361915,0.361913 0.521415,0.748711 0.521415,1.273307 v 2.355412 c 0,0.167627 -0.0231,0.319888 -0.06666,0.465087 l -0.0078,0.02532 -0.0036,0.02325 c -0.02538,0.126914 -0.07418,0.245886 -0.15658,0.369487 l -0.01137,0.01757 -0.01188,0.01964 c -0.07395,0.1331 -0.16565,0.258596 -0.269751,0.380855 -0.184453,0.165136 -0.383233,0.293233 -0.611332,0.384473 l -0.0057,0.0041 -0.0078,0.0021 c -0.212113,0.09091 -0.420789,0.132808 -0.644405,0.132808 h -4.209046 z" /><path
       id="path1159"
       style="font-size:8.46667px;line-height:1.25;font-family:'chol game font';-inkscape-font-specification:'chol game font';fill:#ffffff;stroke-width:0.264583"
       d="M 7.0274778 90.851816 L 7.0274778 92.206772 L 8.7203977 92.206772 L 8.7203977 97.625563 L 10.075354 97.625563 L 10.075354 92.206772 L 11.76879 92.206772 L 11.76879 90.851816 L 7.0274778 90.851816 z M 14.901416 90.851816 C 14.811105 90.851816 14.720942 90.857583 14.630631 90.868869 C 14.545964 90.880156 14.46105 90.896932 14.376383 90.919512 C 14.291716 90.942092 14.206802 90.970395 14.122135 91.004261 C 14.043112 91.038128 13.964479 91.077961 13.885457 91.123117 C 13.812079 91.168271 13.738693 91.219116 13.665315 91.275563 C 13.591937 91.326363 13.524316 91.382456 13.462227 91.444545 C 13.27596 91.636456 13.129188 91.856614 13.021944 92.104969 C 12.920344 92.353325 12.869498 92.613317 12.869498 92.88425 L 12.869498 97.625563 L 14.223938 97.625563 L 14.223938 96.135214 L 16.255855 96.135214 L 16.255855 97.625563 L 17.610811 97.625563 L 17.610811 92.88425 C 17.610811 92.325451 17.410053 91.848441 17.009297 91.45333 C 16.614186 91.052574 16.137693 90.851816 15.578894 90.851816 L 14.901416 90.851816 z M 18.96525 90.851816 L 18.96525 97.625563 L 20.320206 97.625563 L 20.320206 95.593128 L 21.674645 95.593128 C 22.233445 95.593128 22.710455 95.396028 23.105566 95.000917 C 23.506321 94.600161 23.706563 94.120011 23.706563 93.561211 L 23.706563 92.88425 C 23.706563 92.325451 23.508945 91.8453 23.113834 91.444545 C 22.921923 91.258278 22.701764 91.114646 22.453409 91.013046 C 22.205054 90.905802 21.945579 90.851816 21.674645 90.851816 L 20.320206 90.851816 L 18.96525 90.851816 z M 28.786872 90.851816 L 28.786872 92.206772 L 30.479792 92.206772 L 30.479792 97.625563 L 31.834748 97.625563 L 31.834748 92.206772 L 33.528185 92.206772 L 33.528185 90.851816 L 28.786872 90.851816 z M 36.533686 90.851816 C 35.974887 90.851816 35.495253 91.052574 35.094498 91.45333 C 34.699387 91.848441 34.501769 92.325451 34.501769 92.88425 L 34.501769 95.593128 C 34.501769 96.151928 34.699387 96.632079 35.094498 97.032834 C 35.495253 97.427945 35.974887 97.625563 36.533686 97.625563 L 37.211164 97.625563 C 37.769964 97.625563 38.246974 97.427945 38.642085 97.032834 C 39.04284 96.632079 39.243081 96.151928 39.243081 95.593128 L 39.243081 92.88425 C 39.243081 92.325451 39.04284 91.848441 38.642085 91.45333 C 38.246974 91.052574 37.769964 90.851816 37.211164 90.851816 L 36.533686 90.851816 z M 44.704247 90.851816 L 44.704247 97.625563 L 46.058686 97.625563 L 46.058686 95.593128 L 47.413125 95.593128 C 47.971925 95.593128 48.448935 95.396028 48.844045 95.000917 C 49.244801 94.600161 49.445559 94.120011 49.445559 93.561211 L 49.445559 92.88425 C 49.445559 92.325451 49.247941 91.8453 48.85283 91.444545 C 48.660919 91.258278 48.440761 91.114646 48.192406 91.013046 C 47.94405 90.905802 47.684058 90.851816 47.413125 90.851816 L 46.058686 90.851816 L 44.704247 90.851816 z M 50.54575 90.851816 L 50.54575 97.625563 L 54.610102 97.625563 L 54.610102 96.270607 L 51.900706 96.270607 L 51.900706 90.851816 L 50.54575 90.851816 z M 57.657978 90.851816 C 57.567666 90.851816 57.477504 90.857583 57.387193 90.868869 C 57.302526 90.880156 57.217612 90.896932 57.132945 90.919512 C 57.048278 90.942092 56.96388 90.970395 56.879214 91.004261 C 56.800192 91.038128 56.721041 91.077961 56.642019 91.123117 C 56.568642 91.168271 56.495255 91.219116 56.421877 91.275563 C 56.348499 91.326363 56.280878 91.382456 56.218789 91.444545 C 56.032522 91.636456 55.88575 91.856614 55.778506 92.104969 C 55.676906 92.353325 55.62606 92.613317 55.62606 92.88425 L 55.62606 97.625563 L 56.9805 97.625563 L 56.9805 96.135214 L 59.012934 96.135214 L 59.012934 97.625563 L 60.367373 97.625563 L 60.367373 92.88425 C 60.367373 92.325451 60.167131 91.848441 59.766376 91.45333 C 59.371265 91.052574 58.894256 90.851816 58.335456 90.851816 L 57.657978 90.851816 z M 61.55283 90.851816 L 61.55283 93.561211 C 61.55283 94.120011 61.750448 94.597021 62.145559 94.992132 C 62.33747 95.184043 62.557628 95.333955 62.805984 95.4412 C 63.054339 95.5428 63.313814 95.593128 63.584747 95.593128 L 63.584747 97.625563 L 64.939187 97.625563 L 64.939187 95.593128 C 65.497987 95.593128 65.974996 95.396028 66.370107 95.000917 C 66.770862 94.600161 66.971104 94.120011 66.971104 93.561211 L 66.971104 90.851816 L 65.616665 90.851816 L 65.616665 93.561211 C 65.616665 93.747478 65.551666 93.908403 65.421844 94.043869 C 65.376691 94.083382 65.328987 94.117452 65.278184 94.145672 C 65.227384 94.173892 65.173397 94.196434 65.116954 94.213368 C 65.060507 94.230301 65.001274 94.238689 64.939187 94.238689 L 63.584747 94.238689 C 63.398481 94.238689 63.237556 94.173691 63.102089 94.043869 C 62.972268 93.908403 62.907269 93.747478 62.907269 93.561211 L 62.907269 90.851816 L 61.55283 90.851816 z M 74.421812 90.851816 C 74.3315 90.851816 74.241338 90.857583 74.151027 90.868869 C 74.066361 90.880156 73.981962 90.896932 73.897296 90.919512 C 73.812629 90.942092 73.727714 90.970395 73.643048 91.004261 C 73.564026 91.038128 73.484876 91.077961 73.405853 91.123117 C 73.332475 91.168271 73.259089 91.219116 73.185711 91.275563 C 73.112333 91.326363 73.044712 91.382456 72.982623 91.444545 C 72.796357 91.636456 72.649584 91.856614 72.54234 92.104969 C 72.44074 92.353325 72.389894 92.613317 72.389894 92.88425 L 72.389894 97.625563 L 73.74485 97.625563 L 73.74485 96.135214 L 75.776768 96.135214 L 75.776768 97.625563 L 77.131207 97.625563 L 77.131207 92.88425 C 77.131207 92.325451 76.930966 91.848441 76.53021 91.45333 C 76.1351 91.052574 75.65809 90.851816 75.09929 90.851816 L 74.421812 90.851816 z M 80.51808 90.851816 C 79.95928 90.851816 79.479646 91.049434 79.078892 91.444545 C 78.892625 91.636456 78.745853 91.856614 78.638608 92.104969 C 78.537008 92.353325 78.486163 92.613317 78.486163 92.88425 L 78.486163 95.593128 C 78.486163 96.151928 78.683781 96.632079 79.078892 97.032834 C 79.479646 97.427945 79.95928 97.625563 80.51808 97.625563 L 81.872519 97.625563 L 83.227475 97.625563 L 83.227475 94.238689 L 82.549997 94.238689 L 81.872519 94.238689 L 81.195558 94.238689 L 81.195558 95.322344 L 81.872519 95.322344 L 81.872519 96.270607 L 80.51808 96.270607 C 80.331813 96.270607 80.170889 96.205608 80.035422 96.075786 C 79.9056 95.94032 79.840602 95.779395 79.840602 95.593128 L 79.840602 92.88425 C 79.840602 92.697984 79.9056 92.539682 80.035422 92.40986 C 80.170889 92.274394 80.331813 92.206772 80.51808 92.206772 L 81.195558 92.206772 C 81.381825 92.206772 81.542233 92.27177 81.677699 92.401592 C 81.717213 92.446745 81.751282 92.494451 81.779502 92.545253 C 81.813368 92.596053 81.835911 92.649522 81.847198 92.705966 C 81.864131 92.762413 81.872519 92.822163 81.872519 92.88425 L 83.227475 92.88425 C 83.227475 92.748783 83.213321 92.615647 83.185101 92.485825 C 83.162521 92.356002 83.125828 92.232288 83.07503 92.113754 C 83.02423 91.989577 82.961856 91.870592 82.888478 91.757704 C 82.815101 91.644815 82.730703 91.540501 82.634747 91.444545 C 82.233992 91.049434 81.754358 90.851816 81.195558 90.851816 L 80.51808 90.851816 z M 86.613832 90.851816 C 86.523521 90.851816 86.433359 90.857583 86.343047 90.868869 C 86.258381 90.880156 86.173983 90.896932 86.089316 90.919512 C 86.00465 90.942092 85.919735 90.970395 85.835068 91.004261 C 85.756046 91.038128 85.676895 91.077961 85.597873 91.123117 C 85.524495 91.168271 85.45111 91.219116 85.377732 91.275563 C 85.304354 91.326363 85.236733 91.382456 85.174643 91.444545 C 84.988377 91.636456 84.841604 91.856614 84.73436 92.104969 C 84.63276 92.353325 84.581915 92.613317 84.581915 92.88425 L 84.581915 97.625563 L 85.936871 97.625563 L 85.936871 96.135214 L 87.968788 96.135214 L 87.968788 97.625563 L 89.323227 97.625563 L 89.323227 92.88425 C 89.323227 92.325451 89.122986 91.848441 88.72223 91.45333 C 88.327119 91.052574 87.850109 90.851816 87.29131 90.851816 L 86.613832 90.851816 z M 90.678183 90.851816 L 90.678183 97.625563 L 92.032622 97.625563 L 92.032622 90.851816 L 90.678183 90.851816 z M 93.387578 90.851816 L 93.387578 97.625563 L 94.742018 97.625563 L 94.742018 92.545253 L 96.773935 97.625563 L 98.805852 97.625563 L 98.805852 90.851816 L 97.451413 90.851816 L 97.451413 95.932126 L 95.419496 90.851816 L 93.387578 90.851816 z M 14.901416 92.206772 L 15.578894 92.206772 C 15.76516 92.206772 15.925568 92.27177 16.061035 92.401592 C 16.123121 92.469325 16.171343 92.545335 16.205212 92.630002 C 16.239079 92.709024 16.255855 92.793939 16.255855 92.88425 L 16.255855 95.05156 L 14.223938 95.05156 L 14.223938 92.88425 C 14.223938 92.697984 14.288936 92.537059 14.418758 92.401592 C 14.486491 92.339506 14.559877 92.291284 14.638899 92.257415 C 14.723566 92.223548 14.811105 92.206772 14.901416 92.206772 z M 20.320206 92.206772 L 21.674645 92.206772 C 21.736732 92.206772 21.795966 92.21516 21.852412 92.232093 C 21.908859 92.24338 21.962328 92.265923 22.013126 92.29979 C 22.063926 92.32801 22.112147 92.362079 22.157303 92.401592 C 22.16859 92.418525 22.1796 92.435302 22.190893 92.452235 C 22.207826 92.463522 22.221981 92.477676 22.233268 92.49461 C 22.244554 92.511543 22.253459 92.528319 22.259106 92.545253 C 22.270392 92.562186 22.278781 92.578962 22.284427 92.595896 C 22.295714 92.612829 22.304102 92.632743 22.309749 92.655323 C 22.315415 92.672257 22.321182 92.692171 22.326802 92.714751 C 22.332469 92.731685 22.33507 92.748461 22.33507 92.765394 C 22.340737 92.782328 22.343338 92.802242 22.343338 92.824822 C 22.349005 92.841755 22.352123 92.86167 22.352123 92.88425 L 22.352123 93.561211 C 22.352123 93.747478 22.284501 93.908403 22.149035 94.043869 C 22.019212 94.173691 21.860912 94.238689 21.674645 94.238689 L 20.320206 94.238689 L 20.320206 92.206772 z M 36.533686 92.206772 L 37.211164 92.206772 C 37.397431 92.206772 37.555215 92.274394 37.685037 92.40986 C 37.820504 92.539682 37.888125 92.697984 37.888125 92.88425 L 37.888125 95.593128 C 37.888125 95.779395 37.823644 95.94032 37.693822 96.075786 C 37.648669 96.1153 37.600447 96.149369 37.549645 96.177589 C 37.498845 96.205809 37.445376 96.228352 37.388931 96.245285 C 37.332485 96.262218 37.273251 96.270607 37.211164 96.270607 L 36.533686 96.270607 C 36.34742 96.270607 36.186495 96.205608 36.051028 96.075786 C 35.921206 95.94032 35.856208 95.779395 35.856208 95.593128 L 35.856208 92.88425 C 35.856208 92.697984 35.921206 92.539682 36.051028 92.40986 C 36.186495 92.274394 36.34742 92.206772 36.533686 92.206772 z M 46.058686 92.206772 L 47.413125 92.206772 C 47.475212 92.206772 47.534445 92.21516 47.590892 92.232093 C 47.647339 92.24338 47.701325 92.265923 47.752123 92.29979 C 47.802922 92.32801 47.850628 92.362079 47.895783 92.401592 C 47.90707 92.418525 47.918596 92.435302 47.929889 92.452235 C 47.946823 92.463522 47.960977 92.477676 47.972264 92.49461 C 47.983551 92.511543 47.991939 92.528319 47.997586 92.545253 C 48.008872 92.562186 48.01726 92.578962 48.022907 92.595896 C 48.034194 92.612829 48.042582 92.632743 48.048228 92.655323 C 48.053895 92.672257 48.059662 92.692171 48.065282 92.714751 C 48.070948 92.731685 48.07355 92.748461 48.07355 92.765394 C 48.079217 92.782328 48.082335 92.802242 48.082335 92.824822 C 48.088002 92.841755 48.090603 92.86167 48.090603 92.88425 L 48.090603 93.561211 C 48.090603 93.747478 48.022981 93.908403 47.887515 94.043869 C 47.757692 94.173691 47.599908 94.238689 47.413642 94.238689 L 46.058686 94.238689 L 46.058686 92.206772 z M 57.657978 92.206772 L 58.335456 92.206772 C 58.521723 92.206772 58.682647 92.27177 58.818113 92.401592 C 58.8802 92.469325 58.927905 92.545335 58.961774 92.630002 C 58.99564 92.709024 59.012934 92.793939 59.012934 92.88425 L 59.012934 95.05156 L 56.9805 95.05156 L 56.9805 92.88425 C 56.9805 92.697984 57.045497 92.537059 57.17532 92.401592 C 57.243053 92.339506 57.316439 92.291284 57.395461 92.257415 C 57.480128 92.223548 57.567666 92.206772 57.657978 92.206772 z M 74.421812 92.206772 L 75.09929 92.206772 C 75.285556 92.206772 75.446481 92.27177 75.581947 92.401592 C 75.644034 92.469325 75.692255 92.545335 75.726125 92.630002 C 75.759991 92.709024 75.776768 92.793939 75.776768 92.88425 L 75.776768 95.05156 L 73.74485 95.05156 L 73.74485 92.88425 C 73.74485 92.697984 73.809849 92.537059 73.939671 92.401592 C 74.007404 92.339506 74.080273 92.291284 74.159295 92.257415 C 74.243962 92.223548 74.3315 92.206772 74.421812 92.206772 z M 86.613832 92.206772 L 87.29131 92.206772 C 87.477576 92.206772 87.638501 92.27177 87.773968 92.401592 C 87.836054 92.469325 87.88376 92.545335 87.917628 92.630002 C 87.951495 92.709024 87.968788 92.793939 87.968788 92.88425 L 87.968788 95.05156 L 85.936871 95.05156 L 85.936871 92.88425 C 85.936871 92.697984 86.001352 92.537059 86.131174 92.401592 C 86.198907 92.339506 86.272293 92.291284 86.351316 92.257415 C 86.435982 92.223548 86.523521 92.206772 86.613832 92.206772 z " /></g></svg>
