<?xml version="1.0" encoding="UTF-8" standalone="no"?>
<!-- Created with Inkscape (http://www.inkscape.org/) -->

<svg
   width="400"
   height="550"
   viewBox="0 0 105.83333 145.52083"
   version="1.1"
   id="svg1008"
   xml:space="preserve"
   inkscape:version="1.4.2 (ebf0e940d0, 2025-05-08)"
   sodipodi:docname="game_over.svg"
   xmlns:inkscape="http://www.inkscape.org/namespaces/inkscape"
   xmlns:sodipodi="http://sodipodi.sourceforge.net/DTD/sodipodi-0.dtd"
   xmlns="http://www.w3.org/2000/svg"
   xmlns:svg="http://www.w3.org/2000/svg"><sodipodi:namedview
     id="namedview1010"
     pagecolor="#505050"
     bordercolor="#eeeeee"
     borderopacity="1"
     inkscape:showpageshadow="0"
     inkscape:pageopacity="0"
     inkscape:pagecheckerboard="0"
     inkscape:deskcolor="#d1d1d1"
     inkscape:document-units="px"
     showgrid="false"
     inkscape:zoom="1.0452248"
     inkscape:cx="55.012091"
     inkscape:cy="327.68072"
     inkscape:window-width="2226"
     inkscape:window-height="1171"
     inkscape:window-x="0"
     inkscape:window-y="0"
     inkscape:window-maximized="1"
     inkscape:current-layer="layer1"><inkscape:grid
       type="xygrid"
       id="grid1492"
       spacingx="2.6458333"
       spacingy="2.6458333"
       originx="0"
       originy="0"
       units="px" /></sodipodi:namedview><defs
     id="defs1005" /><g
     inkscape:label="Layer 1"
     inkscape:groupmode="layer"
     id="layer1"><path
       id="path1084"
       style="color:#000000;-inkscape-font-specification:'chol game font';fill:#ffffff;-inkscape-stroke:none"
       d="m 15.241705,7.2150632 c -2.324264,0 -4.455843,0.8794602 -6.1169394,2.517159 l -0.00413,0.00207 -0.00568,0.00775 -0.00982,0.00982 -0.0062,0.00413 C 8.3185886,10.559985 7.6962738,11.494667 7.2494279,12.529467 l -0.00982,0.02325 -0.011369,0.03307 0.011369,-0.02739 c -0.4298908,1.050857 -0.650088,2.166658 -0.650088,3.308851 v 2.645833 6.772197 2.645833 c 0,2.324272 0.880018,4.455889 2.5176757,6.116939 l 0.00155,0.0041 0.00775,0.0057 0.00413,0.0062 0.00413,0.0016 c 1.6610944,1.637572 3.7926794,2.517676 6.1169394,2.517676 h 4.709273 6.296773 v -2.645834 -12.303124 -1.53324 -1.112594 -0.475423 c 0,-0.355274 -0.02612,-0.7081 -0.07235,-1.057816 h 0.07235 v -1.588017 c 0,-0.569147 -0.06018,-1.132905 -0.177767,-1.685685 -0.09903,-0.556468 -0.257876,-1.095212 -0.478524,-1.611271 -0.21234,-0.516035 -0.470893,-1.010821 -0.777213,-1.48208 -0.315867,-0.485949 -0.681421,-0.937218 -1.091923,-1.3477216 l -0.0041,-0.0062 -0.0036,-0.00155 C 22.053334,8.0949576 19.921395,7.2150632 17.597116,7.2150632 Z m 21.193537,0 c -0.37147,0 -0.743329,0.022713 -1.115177,0.068213 l -0.03927,0.00568 c -0.36108,0.048145 -0.722244,0.1190114 -1.082105,0.214974 -0.319505,0.085201 -0.631297,0.1945521 -0.941544,0.3141927 l -0.0098,0.00413 -0.0078,0.00207 -0.07183,0.019637 -0.06873,0.028939 c -0.314533,0.1348505 -0.621251,0.2908962 -0.923975,0.4614705 l -0.10542,0.048576 -0.09353,0.075964 -0.01188,0.00982 c -0.255084,0.1616182 -0.50788,0.3305462 -0.75551,0.5193481 -0.32066,0.2240823 -0.622691,0.47438 -0.90072,0.7524088 l -0.01757,0.015503 c -0.0016,0.0017 -0.002,0.00398 -0.0036,0.00568 -0.778199,0.8030197 -1.40011,1.7354767 -1.845883,2.7677897 l -0.0036,0.0057 -0.0083,0.02325 c -0.430531,1.052408 -0.646472,2.168457 -0.646472,3.308842 v 2.645833 15.424381 2.645834 h 7.88479 V 33.937465 31.40377 h 3.888651 v 2.533695 2.645834 h 7.884805 V 33.937462 18.513081 15.867248 c 0,-2.32525 -0.897215,-4.451892 -2.554366,-6.0916176 C 43.246021,8.1150518 41.116247,7.2150632 38.788587,7.2150632 Z m 12.538769,0 v 1.0583333 0.5291667 1.0583333 1.0583335 0.529166 22.489066 2.645834 h 7.88479 v -2.645834 -5.951574 l 2.545064,7.478096 h 8.21862 l 2.542997,-7.472412 v 5.94589 2.645834 h 7.88479 V 33.937462 9.8608965 7.2150632 H 68.261206 L 63.513175,21.203356 58.763078,7.2150632 Z m 30.611568,0 v 1.0583333 0.5291667 1.0583333 1.0583335 0.529166 22.489066 2.645834 H 99.24381 v -2.645834 -5.238956 -2.645833 h -4.709273 v -1.53324 -4.297412 -2.476335 h 2.353861 V 15.099853 9.8608965 7.2150632 Z M 15.241705,17.745686 h 2.355411 c 0.283138,0 0.342209,0.03269 0.546737,0.224276 0.0362,0.04806 0.07597,0.10067 0.09612,0.136943 l 0.0021,0.0021 0.03101,0.05839 0.03307,0.04858 c 0.0021,0.0031 4.96e-4,-2.09e-4 0.0015,0.001 l 5.17e-4,0.0031 0.0021,0.0021 v 0.0057 l 0.0217,0.0863 0.01137,0.03669 c 0.01074,0.0358 0.01964,0.081 0.01964,0.162264 v 0.475423 h -2.353861 v 2.645834 4.297412 0.120923 h -0.767395 c -0.28202,0 -0.340566,-0.03346 -0.54312,-0.222726 -0.189745,-0.203249 -0.224275,-0.265066 -0.224275,-0.544669 v -6.772197 c 0,-0.307291 0.0062,-0.31888 0.212906,-0.525549 0.235769,-0.235769 0.263279,-0.241846 0.554489,-0.241846 z m 21.193537,0 h 2.353345 c 0.281203,0 0.34353,0.03413 0.545186,0.222209 0.06751,0.08247 0.11951,0.158293 0.153996,0.242362 l 0.0078,0.01964 0.01188,0.02532 c 0.03514,0.08198 0.04858,0.140595 0.04858,0.257865 v 3.301607 h -3.888651 v -3.301607 c 0,-0.283027 0.03524,-0.342031 0.224792,-0.545186 0.08901,-0.07337 0.170403,-0.131672 0.242362,-0.163814 0.107158,-0.04022 0.193502,-0.0584 0.300757,-0.0584 z M 20.68685,38.119119 c -2.330201,0 -4.465575,0.897319 -6.12469,2.556433 -1.643291,1.64329 -2.527495,3.770891 -2.527495,6.095752 v 2.645833 6.772196 2.645834 c 0,2.324257 0.879634,4.457561 2.517676,6.119006 l 0.01344,0.01395 0.0041,0.0021 c 1.661091,1.637698 3.792679,2.517676 6.116939,2.517676 h 2.355412 c 2.324324,0 4.452198,-0.881875 6.095752,-2.525427 1.659721,-1.659719 2.554882,-3.797608 2.554882,-6.127274 v -2.645834 -6.772196 -2.645833 c 0,-2.324942 -0.894594,-4.451322 -2.552815,-6.091618 C 27.49925,39.018106 25.370078,38.11915 23.042232,38.11915 Z m 10.865486,0 v 2.645833 l 0.255799,1.267623 0.127124,0.630969 4.964554,24.824324 H 46.56589 L 51.909749,40.764952 V 38.119119 H 43.962431 L 41.732076,49.273477 39.501722,38.119119 Z m 20.660237,0 v 1.05885 0.529167 1.057816 1.05885 0.529167 22.489066 2.645833 h 19.658231 v -2.645833 -5.238957 -2.645833 h -4.709273 v -1.53324 -4.297928 -2.474268 h 2.353862 v -2.645833 -5.241024 -2.645833 z m 20.308321,0 v 1.05885 0.529167 1.057816 1.05885 0.529167 22.489066 2.645833 h 7.88479 v -2.645833 -4.418852 h 3.121256 0.185518 l 3.545004,7.064685 h 8.261511 v -2.645833 l -4.503085,-8.973612 c 0.72494,-1.232007 1.163237,-2.601549 1.163237,-4.095874 v -2.355412 c 0,-0.03372 -0.0041,-0.06664 -0.0047,-0.100252 0.0016,-0.06338 0.0047,-0.12634 0.0047,-0.190169 v -2.355412 c 0,-0.397383 -0.04016,-0.786604 -0.0956,-1.171505 v -0.0062 -0.08217 l -0.01344,-0.07803 v -0.0036 c -0.07228,-0.456296 -0.181439,-0.902432 -0.326595,-1.337903 -0.140103,-0.420311 -0.31496,-0.82676 -0.519349,-1.219047 -0.198463,-0.419238 -0.43382,-0.816648 -0.706933,-1.189075 -0.252159,-0.343851 -0.525913,-0.677273 -0.822172,-0.996321 l -0.01395,-0.01344 -0.0057,-0.0062 -0.0041,-0.0057 -0.01757,-0.0155 C 88.007441,39.000341 85.867639,38.119119 83.526958,38.119119 H 78.817685 Z M 20.68685,48.651809 h 2.355412 c 0.297035,0 0.290249,-0.0048 0.502295,0.216524 l 0.0078,0.0078 0.0155,0.01602 0.0155,0.0155 0.0083,0.0078 c 0.221835,0.212593 0.216524,0.204541 0.216524,0.501778 v 6.772196 c 0,0.282081 -0.03439,0.34345 -0.222725,0.545187 -0.0481,0.03651 -0.09861,0.07666 -0.136426,0.09767 -0.07688,0.04272 -0.157736,0.07673 -0.246496,0.103353 -0.04659,0.01398 -0.08763,0.0217 -0.160197,0.0217 h -2.355412 c -0.282019,0 -0.340048,-0.03346 -0.542602,-0.222725 -0.189607,-0.203126 -0.224793,-0.26575 -0.224793,-0.545187 v -6.772196 c 0,-0.307294 0.0062,-0.318364 0.212907,-0.525032 0.234428,-0.234429 0.260472,-0.240296 0.554488,-0.240296 z m 59.718834,0 h 3.150712 c 0.295843,0 0.293562,-0.0023 0.501778,0.214974 9.78e-4,0.001 0.001,4.72e-4 0.0021,0.0016 l 0.01757,0.0217 0.0078,0.0078 c 0.137249,0.137328 0.181821,0.190747 0.197921,0.309025 -0.0035,0.02513 -0.003,0.05571 -0.01034,0.0801 l -0.02946,0.09198 -0.0057,0.04289 -0.0041,0.0078 -0.02326,0.03721 -0.03152,0.04909 -0.0098,0.01757 c -0.01986,0.03574 -0.06163,0.08667 -0.09767,0.134359 -0.08007,0.06569 -0.151568,0.119322 -0.236162,0.154512 l 0.01964,-0.0057 -0.03359,0.01344 -0.03669,0.0155 h -0.0041 l -0.08217,0.03307 0.02945,-0.02119 c -0.05533,0.01879 -0.103331,0.03514 -0.172082,0.03514 h -3.150195 z m 3.976501,11.743986 h 0.0041 c 0.0026,-1.31e-4 -0.0071,0.0022 -0.0021,0.0021 z" /><path
       id="path393"
       style="font-size:29.4333px;line-height:1.05;font-family:'chol game font';-inkscape-font-specification:'chol game font';text-align:center;text-anchor:middle;fill:#000000;fill-opacity:1;stroke-width:0.264583"
       d="m 15.241705,8.2733965 c -2.067313,0 -3.894117,0.7528923 -5.3748659,2.2127845 l -0.0041,0.0041 -0.0036,0.0036 C 9.1675229,11.206454 8.6193723,12.0288 8.2219783,12.94908 l -0.00155,0.0041 -0.00207,0.0057 c -0.3787456,0.925823 -0.5705078,1.900384 -0.5705078,2.908349 v 9.41803 c 0,2.067312 0.7529372,3.894164 2.2127846,5.374865 l 0.0041,0.0041 0.0021,0.0021 c 1.4807489,1.459894 3.3075529,2.212785 5.3748659,2.212785 h 4.709273 5.237923 V 20.046838 H 22.306389 19.950978 17.06795 V 24.8729 h 2.353344 v 2.238623 h -4.179589 c -0.52002,0 -0.918222,-0.164879 -1.298629,-0.52555 -0.360813,-0.380538 -0.527616,-0.780667 -0.527616,-1.300695 v -9.41803 c 0,-0.524594 0.161567,-0.911394 0.523482,-1.273307 0.385124,-0.385125 0.783524,-0.552938 1.302763,-0.552938 h 2.355411 c 0.520695,0 0.919848,0.16544 1.300696,0.5271 0.102484,0.120833 0.194051,0.246766 0.267684,0.379305 l 0.0098,0.01757 0.01189,0.01757 c 0.0828,0.124193 0.130856,0.242934 0.156063,0.368969 l 0.0062,0.02532 0.0078,0.02377 c 0.04356,0.145201 0.06408,0.299009 0.06408,0.466638 v 0.529167 h 5.767607 v -0.529167 c 0,-0.503105 -0.05179,-0.998317 -0.156063,-1.482597 -0.0854,-0.487487 -0.22402,-0.956106 -0.415995,-1.404048 -0.18852,-0.459385 -0.417975,-0.899196 -0.689364,-1.316716 -0.275292,-0.423526 -0.59431,-0.816518 -0.95343,-1.175639 l -0.0021,-0.0021 C 21.49122,9.0263297 19.66443,8.2733965 17.597116,8.2733965 Z m 21.193537,0 c -0.336052,0 -0.672731,0.020594 -1.008207,0.062528 l -0.0015,0.00207 h -0.0041 c -0.31685,0.042234 -0.633375,0.1048655 -0.94938,0.1891333 -0.315893,0.084238 -0.628742,0.1895884 -0.941545,0.3147095 l -0.0078,0.00207 -0.0057,0.00155 c -0.293958,0.126021 -0.585522,0.2732369 -0.876949,0.4397665 l -0.0078,0.00362 -0.0078,0.0062 c -0.264826,0.1629703 -0.527881,0.3447953 -0.789099,0.5446696 -0.0019,0.00134 -0.0037,0.00278 -0.0057,0.00413 -0.278332,0.1931916 -0.536672,0.4074806 -0.773596,0.6444046 l -0.0021,0.0041 -0.0041,0.0016 c -0.691551,0.712508 -1.239198,1.534867 -1.636592,2.455147 l -0.0021,0.0041 -0.0021,0.0057 c -0.378745,0.925823 -0.567924,1.900384 -0.567924,2.908349 v 17.011881 h 5.767606 V 27.69908 h 6.005835 v 5.180045 h 5.767606 V 15.867248 c 0,-2.067591 -0.766548,-3.886942 -2.246374,-5.347477 C 42.67563,9.0398982 40.856178,8.2733965 38.788587,8.2733965 Z m 13.59762,0 V 8.8025632 32.879129 h 5.767606 V 18.945096 l 4.360974,12.814722 h 6.703467 L 71.224332,18.94923 v 13.929899 h 5.767607 V 8.2733965 h -7.97264 L 63.513175,24.494111 58.005501,8.2733965 Z m 30.61105,0 V 8.8025632 32.879129 H 98.18496 V 27.111523 H 86.411518 V 23.4611 h 7.064685 v -4.826579 h -7.064685 v -4.593518 h 9.41803 V 8.2733965 Z m -44.20867,5.7676065 h 2.353345 c 0.519756,0 0.920457,0.165265 1.300696,0.525549 0.165709,0.184804 0.295602,0.38425 0.387056,0.612883 l 0.0016,0.0083 0.0021,0.0057 c 0.08911,0.207913 0.134876,0.426203 0.134875,0.673861 v 7.005774 h -6.005835 v -7.005774 c 0,-0.519082 0.164057,-0.918707 0.523483,-1.298629 0.188835,-0.170067 0.383875,-0.300214 0.593762,-0.390673 0.231579,-0.09157 0.46407,-0.136943 0.709,-0.136943 z M 20.68685,39.177969 c -2.069099,0 -3.896791,0.765717 -5.376933,2.245858 -1.461761,1.461761 -2.216402,3.280164 -2.216402,5.347477 v 9.418029 c 0,2.067313 0.752892,3.896184 2.212785,5.376933 l 0.0036,0.0021 0.0021,0.0021 c 1.480749,1.459893 3.307552,2.212785 5.374865,2.212785 h 2.355929 c 2.067312,0 3.885716,-0.75309 5.347477,-2.214852 1.480141,-1.48014 2.244307,-3.309901 2.244307,-5.379 v -9.417512 c 0,-2.066646 -0.763698,-3.885684 -2.24224,-5.345927 -1.461122,-1.481995 -3.280446,-2.247925 -5.349544,-2.247925 z m 12.158431,0 0.127124,0.63252 4.794539,23.972696 h 7.931815 l 4.920113,-24.605216 h -5.78931 L 41.732076,54.665912 38.634074,39.177969 Z m 20.425626,0 v 0.529167 24.076049 H 70.811954 V 58.015578 H 59.038513 v -3.650423 h 7.064685 v -4.826062 h -7.064685 v -4.591967 h 9.41803 v -5.769157 z m 20.308837,0 v 0.529167 24.076049 H 79.34735 V 56.7185 h 4.17959 0.295072 0.31626 l 0.05271,-0.0093 c 0.05503,-0.01101 0.107215,-0.01439 0.160197,-0.01602 l 3.558439,7.090006 h 5.894731 l -4.759916,-9.486244 c 1.343025,-1.446639 2.076359,-3.188642 2.076359,-5.170226 v -2.355412 c 0,-0.399413 -0.03221,-0.789823 -0.0956,-1.171505 v -0.0041 C 90.96192,45.196237 90.866685,44.805957 90.739936,44.425711 90.615418,44.052155 90.459932,43.69023 90.274848,43.337922 l -0.0021,-0.0041 c -0.170971,-0.362656 -0.37421,-0.704731 -0.609265,-1.025261 -0.22817,-0.311139 -0.475523,-0.610923 -0.74414,-0.900203 l -0.0078,-0.0078 -0.0057,-0.0062 c -1.462608,-1.462607 -3.293312,-2.216402 -5.379,-2.216402 H 78.81757 Z M 20.68685,44.947126 h 2.355412 c 0.519237,0 0.902291,0.163522 1.266072,0.543119 l 0.0078,0.0078 0.0078,0.0078 c 0.379744,0.363922 0.54312,0.746318 0.54312,1.265556 v 9.418029 c 0,0.520026 -0.16487,0.920283 -0.52555,1.300696 -0.121158,0.102928 -0.245168,0.19345 -0.378788,0.267684 -0.143454,0.0797 -0.295026,0.143647 -0.455269,0.19172 -0.1452,0.04356 -0.297459,0.06614 -0.465088,0.06614 h -2.355412 c -0.520019,0 -0.918221,-0.164878 -1.298629,-0.525549 -0.360683,-0.380415 -0.527616,-0.780667 -0.527616,-1.300696 v -9.418029 c 0,-0.524596 0.161568,-0.911394 0.523482,-1.273307 0.385124,-0.385125 0.783526,-0.550871 1.302763,-0.550871 z m 58.6605,0 h 4.209046 c 0.519237,0 0.903701,0.163376 1.267622,0.543119 l 0.0036,0.0041 0.0041,0.0036 c 0.361915,0.361913 0.521415,0.748711 0.521415,1.273307 v 2.355412 c 0,0.167627 -0.0231,0.319888 -0.06666,0.465087 l -0.0078,0.02532 -0.0036,0.02325 c -0.02538,0.126914 -0.07418,0.245886 -0.15658,0.369487 l -0.01137,0.01757 -0.01188,0.01964 c -0.07395,0.1331 -0.16565,0.258596 -0.269751,0.380855 -0.184453,0.165136 -0.383233,0.293233 -0.611332,0.384473 l -0.0057,0.0041 -0.0078,0.0021 c -0.212113,0.09091 -0.420789,0.132808 -0.644405,0.132808 h -4.209046 z" /><path
       id="path1159"
       style="font-size:8.46667px;line-height:1.25;font-family:'chol game font';-inkscape-font-specification:'chol game font';fill:#ffffff;stroke-width:0.264583"
       d="m 28.037712,138.84345 v 0.73459 h 0.917821 v 2.93782 h 0.734593 v -2.93782 h 0.918101 v -0.73459 z m 4.268877,0 c -0.04896,0 -0.09784,0.003 -0.146807,0.009 -0.04591,0.006 -0.09194,0.0153 -0.137841,0.0275 -0.04591,0.0123 -0.09194,0.0276 -0.137841,0.046 -0.04284,0.0184 -0.08547,0.0399 -0.128315,0.0644 -0.03979,0.0245 -0.07957,0.052 -0.119351,0.0827 -0.03979,0.0275 -0.07644,0.058 -0.110105,0.0916 -0.100985,0.10405 -0.180558,0.2234 -0.238701,0.35805 -0.05508,0.13465 -0.08265,0.2756 -0.08265,0.42249 v 2.57052 h 0.734313 v -0.808 H 33.0409 v 0.808 h 0.734594 v -2.57052 c 0,-0.30295 -0.108842,-0.56157 -0.326113,-0.77578 -0.21421,-0.21727 -0.472543,-0.32611 -0.775497,-0.32611 z m 2.20322,0 v 3.67241 h 0.734593 v -1.1019 h 0.734313 c 0.302955,0 0.561567,-0.10685 0.775778,-0.32106 0.21727,-0.21727 0.325832,-0.47759 0.325832,-0.78054 v -0.36702 c 0,-0.30296 -0.107139,-0.56327 -0.32135,-0.78054 -0.104045,-0.10098 -0.223405,-0.17885 -0.358051,-0.23394 -0.134647,-0.0582 -0.275321,-0.0874 -0.422209,-0.0874 h -0.734313 z m 5.32482,0 v 0.73459 h 0.917821 v 2.93782 h 0.734593 v -2.93782 h 0.918102 v -0.73459 z m 4.199957,0 c -0.302955,0 -0.562989,0.10884 -0.780259,0.32611 -0.214211,0.21421 -0.32135,0.47282 -0.32135,0.77578 v 1.46862 c 0,0.30296 0.107139,0.56327 0.32135,0.78055 0.21727,0.2142 0.477304,0.32135 0.780259,0.32135 h 0.367297 c 0.302955,0 0.561567,-0.10715 0.775778,-0.32135 0.217271,-0.21728 0.325832,-0.47759 0.325832,-0.78055 v -1.46862 c 0,-0.30296 -0.108561,-0.56157 -0.325832,-0.77578 -0.214211,-0.21727 -0.472823,-0.32611 -0.775778,-0.32611 z m 4.429693,0 v 3.67241 h 0.734313 v -1.1019 h 0.734313 c 0.302955,0 0.561568,-0.10685 0.775777,-0.32106 0.217272,-0.21727 0.326113,-0.47759 0.326113,-0.78054 v -0.36702 c 0,-0.30296 -0.107139,-0.56327 -0.32135,-0.78054 -0.104045,-0.10098 -0.223404,-0.17885 -0.358051,-0.23394 -0.134646,-0.0582 -0.275602,-0.0874 -0.422489,-0.0874 h -0.734313 z m 3.166988,0 v 3.67241 h 2.2035 v -0.73459 H 52.36586 v -2.93782 z m 3.855914,0 c -0.04896,0 -0.09784,0.003 -0.146806,0.009 -0.04591,0.006 -0.09194,0.0153 -0.137842,0.0275 -0.04591,0.0123 -0.09166,0.0276 -0.137561,0.046 -0.04284,0.0184 -0.08575,0.0399 -0.128596,0.0644 -0.03979,0.0245 -0.07957,0.052 -0.11935,0.0827 -0.03978,0.0275 -0.07644,0.058 -0.110105,0.0916 -0.100985,0.10405 -0.180558,0.2234 -0.238701,0.35805 -0.05508,0.13465 -0.08265,0.2756 -0.08265,0.42249 v 2.57052 h 0.734313 v -0.808 h 1.101891 v 0.808 h 0.734312 v -2.57052 c 0,-0.30295 -0.108561,-0.56157 -0.325831,-0.77578 -0.214211,-0.21727 -0.472823,-0.32611 -0.775778,-0.32611 z m 2.111606,0 v 1.46891 c 0,0.30295 0.107139,0.56156 0.321349,0.77577 0.104045,0.10405 0.223405,0.18532 0.358052,0.24347 0.134646,0.0551 0.275321,0.0824 0.422208,0.0824 v 1.1019 h 0.734314 v -1.1019 c 0.302954,0 0.561567,-0.10685 0.775777,-0.32106 0.21727,-0.21727 0.325832,-0.47759 0.325832,-0.78054 v -1.46891 h -0.734313 v 1.46891 c 0,0.10098 -0.03524,0.18823 -0.105623,0.26167 -0.02447,0.0214 -0.05034,0.0399 -0.07788,0.0552 -0.02754,0.0153 -0.05681,0.0275 -0.08741,0.0367 -0.0306,0.009 -0.06272,0.0137 -0.09638,0.0137 h -0.734314 c -0.100984,0 -0.18823,-0.0353 -0.261674,-0.10563 -0.07038,-0.0734 -0.105623,-0.16069 -0.105623,-0.26167 v -1.46891 z m 6.976955,0 c -0.04896,0 -0.09784,0.003 -0.146807,0.009 -0.04591,0.006 -0.09166,0.0153 -0.137561,0.0275 -0.04591,0.0123 -0.09194,0.0276 -0.137842,0.046 -0.04284,0.0184 -0.08575,0.0399 -0.128596,0.0644 -0.03978,0.0245 -0.07957,0.052 -0.11935,0.0827 -0.03979,0.0275 -0.07644,0.058 -0.110105,0.0916 -0.100984,0.10405 -0.180558,0.2234 -0.2387,0.35805 -0.05508,0.13465 -0.08265,0.2756 -0.08265,0.42249 v 2.57052 h 0.734594 v -0.808 h 1.10161 v 0.808 h 0.734313 v -2.57052 c 0,-0.30295 -0.108561,-0.56157 -0.325832,-0.77578 -0.21421,-0.21727 -0.472823,-0.32611 -0.775778,-0.32611 z m 3.305109,0 c -0.302955,0 -0.56299,0.10714 -0.78026,0.32135 -0.100985,0.10405 -0.180558,0.2234 -0.238701,0.35805 -0.05508,0.13464 -0.08265,0.2756 -0.08265,0.42249 v 1.46862 c 0,0.30296 0.107139,0.56327 0.32135,0.78055 0.21727,0.2142 0.477305,0.32135 0.78026,0.32135 h 0.734313 0.734593 v -1.83621 H 68.98246 68.615164 68.248147 v 0.58751 h 0.367017 v 0.51411 h -0.734313 c -0.100986,0 -0.188231,-0.0353 -0.261675,-0.10563 -0.07038,-0.0734 -0.105622,-0.16069 -0.105622,-0.26168 v -1.46862 c 0,-0.10099 0.03524,-0.18681 0.105622,-0.25719 0.07344,-0.0735 0.160689,-0.11011 0.261675,-0.11011 h 0.367296 c 0.100986,0 0.187952,0.0353 0.261395,0.10562 0.02142,0.0245 0.03989,0.0504 0.05519,0.0779 0.01836,0.0275 0.03058,0.0565 0.0367,0.0871 0.0092,0.0306 0.01373,0.063 0.01373,0.0966 h 0.734593 c 0,-0.0734 -0.0077,-0.14562 -0.02297,-0.21601 -0.01224,-0.0704 -0.03213,-0.13745 -0.05967,-0.20172 -0.02754,-0.0673 -0.06136,-0.13183 -0.10114,-0.19303 -0.03978,-0.0612 -0.08554,-0.11776 -0.137561,-0.16978 -0.21727,-0.21421 -0.477305,-0.32135 -0.78026,-0.32135 z m 3.304829,0 c -0.04896,0 -0.09784,0.003 -0.146807,0.009 -0.04591,0.006 -0.09166,0.0153 -0.137561,0.0275 -0.04591,0.0123 -0.09194,0.0276 -0.137841,0.046 -0.04284,0.0184 -0.08575,0.0399 -0.128596,0.0644 -0.03979,0.0245 -0.07957,0.052 -0.11935,0.0827 -0.03979,0.0275 -0.07644,0.058 -0.110105,0.0916 -0.100985,0.10405 -0.180558,0.2234 -0.238701,0.35805 -0.05508,0.13465 -0.08265,0.2756 -0.08265,0.42249 v 2.57052 h 0.734594 v -0.808 h 1.101609 v 0.808 h 0.734314 v -2.57052 c 0,-0.30295 -0.108562,-0.56157 -0.325833,-0.77578 -0.21421,-0.21727 -0.472823,-0.32611 -0.775777,-0.32611 z m 2.203499,0 v 3.67241 h 0.734314 v -3.67241 z m 1.468907,0 v 3.67241 h 0.734313 v -2.75431 l 1.10161,2.75431 h 1.10161 v -3.67241 h -0.734313 v 2.7543 l -1.10161,-2.7543 z m -42.551497,0.73459 h 0.367297 c 0.100985,0 0.18795,0.0353 0.261394,0.10562 0.03366,0.0367 0.05981,0.0779 0.07817,0.12384 0.01836,0.0428 0.02746,0.0889 0.02746,0.13784 v 1.17502 H 31.9393 v -1.17502 c 0,-0.10099 0.03524,-0.18823 0.105622,-0.26168 0.03672,-0.0337 0.07651,-0.0598 0.11935,-0.0782 0.04591,-0.0184 0.09336,-0.0274 0.142324,-0.0274 z m 2.937813,0 h 0.734313 c 0.03366,0 0.06578,0.004 0.09638,0.0137 0.0306,0.006 0.05959,0.0183 0.08713,0.0367 0.02754,0.0153 0.05369,0.0338 0.07817,0.0552 0.0061,0.009 0.01209,0.0183 0.01821,0.0275 0.0092,0.006 0.01685,0.0138 0.02297,0.023 0.0061,0.009 0.01094,0.0183 0.01401,0.0275 0.0061,0.009 0.01066,0.0183 0.01373,0.0274 0.0061,0.009 0.01066,0.0199 0.01373,0.0322 0.0031,0.009 0.0062,0.02 0.0092,0.0322 0.0031,0.009 0.0045,0.0183 0.0045,0.0274 0.0031,0.009 0.0045,0.0199 0.0045,0.0322 0.0031,0.009 0.0047,0.02 0.0047,0.0322 v 0.36701 c 0,0.10099 -0.03666,0.18823 -0.110104,0.26167 -0.07038,0.0704 -0.156207,0.10563 -0.257192,0.10563 h -0.734313 z m 8.790184,0 h 0.367297 c 0.100985,0 0.186528,0.0367 0.256911,0.11011 0.07344,0.0704 0.110105,0.1562 0.110105,0.25719 v 1.46862 c 0,0.10099 -0.03496,0.18824 -0.105342,0.26168 -0.02447,0.0214 -0.05062,0.0399 -0.07816,0.0552 -0.02754,0.0153 -0.05653,0.0275 -0.08713,0.0367 -0.0306,0.009 -0.06272,0.0137 -0.09638,0.0137 H 44.03459 c -0.100984,0 -0.18823,-0.0353 -0.261674,-0.10562 -0.07038,-0.0734 -0.105622,-0.1607 -0.105622,-0.26168 v -1.46863 c 0,-0.10099 0.03524,-0.1868 0.105622,-0.25719 0.07344,-0.0734 0.16069,-0.11011 0.261674,-0.11011 z m 5.164006,0 h 0.734313 c 0.03366,0 0.06577,0.004 0.09638,0.0137 0.0306,0.006 0.05987,0.0183 0.08741,0.0367 0.02754,0.0153 0.05341,0.0338 0.07789,0.0552 0.0061,0.009 0.01237,0.0183 0.01849,0.0275 0.0092,0.006 0.01685,0.0138 0.02297,0.023 0.0061,0.009 0.01066,0.0183 0.01373,0.0275 0.0061,0.009 0.01066,0.0183 0.01373,0.0274 0.0061,0.009 0.01067,0.0199 0.01373,0.0322 0.0031,0.009 0.0062,0.02 0.0092,0.0322 0.0031,0.009 0.0045,0.0183 0.0045,0.0274 0.0031,0.009 0.0047,0.0199 0.0047,0.0322 0.0031,0.009 0.0045,0.02 0.0045,0.0322 v 0.36701 c 0,0.10099 -0.03666,0.18823 -0.110105,0.26167 -0.07038,0.0704 -0.155926,0.10563 -0.256912,0.10563 h -0.734592 z m 6.288589,0 h 0.367297 c 0.100985,0 0.188231,0.0353 0.261674,0.10562 0.03366,0.0367 0.05953,0.0779 0.07789,0.12384 0.01836,0.0428 0.02773,0.0889 0.02773,0.13784 v 1.17502 h -1.10189 v -1.17502 c 0,-0.10099 0.03524,-0.18823 0.105622,-0.26168 0.03672,-0.0337 0.07651,-0.0598 0.11935,-0.0782 0.04591,-0.0184 0.09336,-0.0274 0.142324,-0.0274 z m 9.088561,0 h 0.367296 c 0.100985,0 0.188231,0.0353 0.261674,0.10562 0.03366,0.0367 0.05981,0.0779 0.07817,0.12384 0.01836,0.0428 0.02746,0.0889 0.02746,0.13784 v 1.17502 h -1.10161 v -1.17502 c 0,-0.10099 0.03524,-0.18823 0.105623,-0.26168 0.03672,-0.0337 0.07623,-0.0598 0.119069,-0.0782 0.04591,-0.0184 0.09336,-0.0274 0.142325,-0.0274 z m 6.609938,0 h 0.367297 c 0.100985,0 0.188231,0.0353 0.261674,0.10562 0.03366,0.0367 0.05952,0.0779 0.07789,0.12384 0.01836,0.0428 0.02773,0.0889 0.02773,0.13784 v 1.17502 h -1.101609 v -1.17502 c 0,-0.10099 0.03496,-0.18823 0.105341,-0.26168 0.03672,-0.0337 0.07651,-0.0598 0.119351,-0.0782 0.04591,-0.0184 0.09336,-0.0274 0.142324,-0.0274 z" /></g></svg>
